# xmcd
#
# Track frame offsets:
# 150
# 11950
# 22452
# 36882
# 50010
# 66240
# 76952
# 89480
# 107282
# 124170
# 134665
# 147155
# 156250
# 169685
# 182022
# 193580
# 207285
# 220392
# 230307
# 240930
# 254035
# 264692
# 277200
# 291152
# 306015
#
# Disc length: 4310 seconds
#
# Revision: 0
# Processed by: cddbd v1.5.2PL0 Copyright (c) Steve Scherf et al.
# Submitted via: Audion 3.0.2 (http://www.panic.com/audion/)
#
DISCID=8310d419
DTITLE=Various Artist - Romantic Songs of Love Vol. 1
DYEAR=1900
DGENRE=
TTITLE0=The Platters - The Great Pretender
TTITLE1=Everly Brothers - All I Have To Do Is Dream
TTITLE2=Tremeloes - Silence Is Golden
TTITLE3=Ray Paterson - Tell Laura I Love Her
TTITLE4=Dobie Gray - Feelings
TTITLE5=Ben E. King - I Who Have Nothing
TTITLE6=Betty Everett and Jerry Butlers - Let It Be Me
TTITLE7=Percy Sledge - If Loving You Is Wrong
TTITLE8=Lobo - Don't Expect Me To Be Your Friend
TTITLE9=The Shirelles - Dedicated To The One I Love
TTITLE10=Johnnie Ray - Just Walking In The Rain
TTITLE11=Wayne Fontana - A Groovy Kind Of Love
TTITLE12=The Four Aces - Stranger In Paradise
TTITLE13=The Platters - My Prayer
TTITLE14=Donna Fargo - Happiest Girl In The Whole USA
TTITLE15=The Four Aces - Love Is A Many Slendored Thing
TTITLE16=Ben E. King - Don't Play That Song (You Lied)
TTITLE17=Pat Boone - Don't Forbid Me
TTITLE18=Dale and Grace - I'm Leaving It Up To You
TTITLE19=Bobby Helms - My Special Angel
TTITLE20=The Teddy Bears - To Know Him Is To Love Him
TTITLE21=B.J. Thomas - I Can't Help It (If I'm Still In Love With You)
TTITLE22=The Kingstom Trio - Where Have All The Flowers Gone
TTITLE23=Eddie Homan - Hey There Lonely Girl
TTITLE24=Nazareth - Love Hurt
EXTD=
EXTT0=
EXTT1=
EXTT2=
EXTT3=
EXTT4=
EXTT5=
EXTT6=
EXTT7=
EXTT8=
EXTT9=
EXTT10=
EXTT11=
EXTT12=
EXTT13=
EXTT14=
EXTT15=
EXTT16=
EXTT17=
EXTT18=
EXTT19=
EXTT20=
EXTT21=
EXTT22=
EXTT23=
EXTT24=
PLAYORDER=
